<svg width="267" height="361" viewBox="0 0 267 361" fill="none" xmlns="http://www.w3.org/2000/svg">
<ellipse cx="17.5699" cy="23.5527" rx="17.5699" ry="23.5527" transform="matrix(-0.0191406 -0.999817 0.999819 -0.0190421 16.3252 293.23)" fill="#EE79D9"/>
<path d="M62.5756 260.683C51.5662 256.423 27.8718 251.36 21.1697 265.192C12.7921 282.483 30.5928 299.712 58.1307 278.74" stroke="#09090B" stroke-width="4" stroke-linecap="round"/>
<ellipse cx="15.7469" cy="23.0179" rx="15.7469" ry="23.0179" transform="matrix(-0.771909 0.635733 -0.637183 -0.770713 53.9483 182.491)" fill="#EE79D9"/>
<path d="M51.2687 184.742C44.8947 173.787 28.2229 152.821 12.5286 156.588C-3.1657 160.355 12.5286 188.51 28.3411 193.274" stroke="#27272A" stroke-width="4" stroke-linecap="round"/>
<path d="M256.596 156.321C223.879 131.864 161.608 192.076 133.91 225.979C133.549 226.421 133.629 227.053 134.069 227.416L154.474 244.225C154.67 244.387 154.887 244.474 155.142 244.46C182.32 243.018 297.623 186.99 256.596 156.321Z" fill="#92E4D9"/>
<path d="M208.94 224.728C200.317 210.7 188.296 195.151 177.221 181.933C170.922 187.46 164.848 193.287 159.181 199.087C167.932 210.388 177.383 223.666 185.578 235.61C192.945 232.611 200.939 228.915 208.94 224.728Z" fill="#27272A"/>
<path d="M224.513 215.44C223.747 214.526 222.97 213.602 222.183 212.67C211.13 199.573 198.082 184.754 186.955 173.569C186.95 173.564 186.945 173.559 186.941 173.555C194.26 168.302 201.666 163.658 208.902 160.035C209.615 160.726 210.332 161.425 211.052 162.131C223.172 174.01 236.162 187.869 245.526 200.517C239.459 205.681 232.247 210.719 224.513 215.44Z" fill="#27272A"/>
<path d="M261.766 184.077C268.54 173.774 268.868 163.816 258.091 155.776C250.112 149.824 240.273 149.086 229.568 151.859L261.766 184.077Z" fill="#27272A"/>
<path d="M44.3732 266.13C15.8253 234.352 39.1908 162.397 54.442 130.391C78.5853 126.534 127.871 118.853 131.869 118.988C204.523 249.504 161.581 247.059 159.56 262.5C157.54 277.941 80.058 305.852 44.3732 266.13Z" fill="#B8EEE7"/>
<ellipse cx="104" cy="343.5" rx="86" ry="17.5" fill="#F4F4F5"/>
<path d="M178.769 33.6739C190.254 51.1229 169.793 83.6271 166.867 86.5233C157.815 83.4765 138.5 74.2589 133.657 61.7622C127.603 46.1413 167.284 16.225 178.769 33.6739Z" fill="#EE79D9"/>
<path d="M38.8175 19.056C57.9608 12.7378 83.185 39.8739 85.1577 43.3165C80.0581 50.9695 66.6424 66.6209 53.7755 68.002C37.692 69.7284 19.6742 25.3742 38.8175 19.056Z" fill="#EE79D9"/>
<path d="M31.6363 72.7852C93.0432 9.63328 151.361 45.8976 176.675 75.8809C179.486 79.2105 181.793 82.9552 183.331 87.0321C196.225 121.196 171.751 140.75 157.065 146.444C136.843 153.015 86.5936 161.006 47.3635 140.398C8.13334 119.789 20.5328 86.736 31.6363 72.7852Z" fill="#D4F5F1"/>
<ellipse cx="137.952" cy="109.354" rx="15.175" ry="14.5406" transform="rotate(3.15452 137.952 109.354)" fill="#F6C4EE"/>
<ellipse cx="70.3582" cy="103.048" rx="15.175" ry="14.5406" transform="rotate(3.15452 70.3582 103.048)" fill="#F6C4EE"/>
<path d="M103.289 116L102 132" stroke="#27272A" stroke-width="3"/>
<path fill-rule="evenodd" clip-rule="evenodd" d="M118.624 126.452L86.4527 124.678C84.7846 124.587 83.6101 126.235 84.3849 127.688C86.2674 131.219 88.774 134.736 91.7544 137.424C93.4176 131.309 105.634 127.297 112.377 138.561C114.977 136.577 117.65 133.704 120.361 129.754C121.309 128.372 120.322 126.545 118.624 126.452Z" fill="#27272A"/>
<path d="M91.7544 137.424C97.308 142.433 104.506 144.567 112.377 138.561C105.634 127.297 93.4176 131.309 91.7544 137.424Z" fill="#EE79D9"/>
<path d="M91.7544 137.424C97.308 142.433 104.506 144.567 112.377 138.561M91.7544 137.424C93.4176 131.309 105.634 127.297 112.377 138.561M91.7544 137.424C88.774 134.736 86.2674 131.219 84.3849 127.688M112.377 138.561C114.977 136.577 117.65 133.704 120.361 129.754M86.4527 124.678L118.624 126.452M86.4527 124.678C84.7846 124.587 83.6101 126.235 84.3849 127.688M86.4527 124.678L84.4525 124.568C83.7115 124.527 83.1883 125.279 83.5073 125.949C83.7825 126.527 84.0753 127.108 84.3849 127.688M118.624 126.452C120.322 126.545 121.309 128.372 120.361 129.754M118.624 126.452L120.692 126.565C121.446 126.607 121.882 127.437 121.475 128.073C121.103 128.654 120.732 129.214 120.361 129.754" stroke="#27272A" stroke-width="4"/>
<path d="M88.5072 20.6681L89.3889 37.6491C89.4564 38.9486 90.6957 39.8971 91.9969 39.8169C100.1 39.3176 116.944 42.3592 126.581 44.426C127.686 44.6628 128.782 43.9881 129.057 42.895L133.937 23.509C134.384 21.7333 132.479 20.2892 130.885 21.1955L123.922 25.1549C122.7 25.8503 121.152 25.1598 120.855 23.7864L116.364 3.00519C115.909 0.900992 112.944 0.788321 112.331 2.85196L105.535 25.7372C105.121 27.1304 103.44 27.6806 102.28 26.8025L91.8457 18.9045C90.434 17.8359 88.4155 18.9022 88.5072 20.6681Z" fill="#30665E"/>
<path d="M170.914 64.3649C176.073 57.8766 179.355 49.722 179.85 40.7352C179.966 38.6388 179.926 36.5707 179.74 34.5428C179.351 32.3599 178.534 30.3213 177.377 28.5276C177.377 28.5273 177.376 28.5271 177.376 28.5274V28.5274C177.375 28.5277 177.375 28.5275 177.375 28.5271C176.059 26.4234 173.829 24.9648 171.222 24.7683C171.142 24.7627 171.061 24.7576 170.981 24.7532C168.825 24.6344 166.746 24.9619 164.828 25.6572C164.763 25.6808 164.698 25.7048 164.633 25.7293L164.624 25.7322C154.574 28.9142 146.136 36.0635 141.16 45.4803M170.844 64.5626L170.885 64.5363C170.899 64.5267 170.919 64.5279 170.932 64.5392V64.5392C170.949 64.5537 170.975 64.5512 170.989 64.5336C176.198 58.0086 179.513 49.7966 180.012 40.7441C180.128 38.6438 180.088 36.5717 179.903 34.5396C179.903 34.5392 179.903 34.5388 179.904 34.5387V34.5387C179.904 34.5386 179.904 34.5382 179.904 34.5377C179.491 32.1989 178.591 30.0239 177.312 28.1332C175.921 26.1088 173.672 24.7351 171.071 24.5918C171.044 24.5901 171.017 24.5886 170.99 24.5871C168.812 24.4671 166.712 24.798 164.774 25.5004C164.709 25.524 164.644 25.548 164.579 25.5724C154.453 28.7778 145.956 35.9949 140.966 45.4988C140.961 45.5098 140.965 45.5234 140.975 45.5294V45.5294C140.983 45.5337 140.988 45.5425 140.987 45.5515L140.98 45.6291" stroke="#27272A" stroke-width="4" stroke-linecap="round"/>
<path d="M45.8438 55.4091C41.4148 48.3936 39.0407 39.9288 39.5359 30.9437C39.6514 28.8477 39.919 26.797 40.327 24.8022C40.9556 22.6758 41.9944 20.7399 43.3448 19.0847C43.3451 19.0843 43.3457 19.0843 43.346 19.0846V19.0846C43.3464 19.0849 43.3469 19.0848 43.3472 19.0845C44.8898 17.1385 47.2738 15.9346 49.894 16.0262C49.9747 16.0294 50.0555 16.0332 50.1365 16.0377C52.2985 16.1569 54.3354 16.7112 56.1705 17.6131C56.2329 17.6437 56.295 17.6748 56.3569 17.7062L56.3653 17.7101C66.0336 21.978 73.6586 30.0112 77.5826 39.9167M45.8922 55.6132L45.8545 55.5825C45.8408 55.5714 45.8215 55.5705 45.8068 55.5803V55.5803C45.7881 55.5928 45.7627 55.5874 45.7506 55.5684C41.2757 48.511 38.8747 39.9856 39.3735 30.9348C39.4892 28.8348 39.757 26.7801 40.1652 24.7811C40.1653 24.7807 40.165 24.7802 40.1646 24.7801V24.7801C40.1642 24.78 40.1639 24.7795 40.164 24.779C40.8339 22.5004 41.97 20.438 43.453 18.6998C45.062 16.8412 47.4553 15.7236 50.0645 15.8674C50.0916 15.8687 50.1186 15.8701 50.1456 15.8716C52.3294 15.992 54.3872 16.552 56.2413 17.4632C56.3036 17.4938 56.3656 17.5248 56.4274 17.5562C66.1696 21.8559 73.8456 29.9628 77.7738 39.9564C77.7784 39.968 77.7728 39.981 77.7613 39.9858V39.9858C77.7529 39.9892 77.7474 39.9974 77.7473 40.0065L77.7463 40.0844" stroke="#27272A" stroke-width="4" stroke-linecap="round"/>
<path fill-rule="evenodd" clip-rule="evenodd" d="M130.273 110.527C118.967 105.545 106.35 93.841 112.54 76.7589C114.317 71.8546 125.289 58.9756 143.536 64.3308C151.828 66.9197 157.769 73.6361 163.664 80.2998C165.622 82.5127 167.574 84.7198 169.606 86.768C178.059 95.2903 187.401 106.243 186.264 112.057C184.919 118.926 169.788 130.307 159.677 137.238C155.253 140.271 148.835 137.987 147.707 132.743C144.753 119.009 134.853 112.21 130.273 110.527ZM122.866 87.7336C127.26 81.8574 134.282 77.8562 141.69 88.1189C142.867 89.7488 140.94 91.6291 139.11 90.797C132.969 88.0047 129.266 88.4107 125.127 90.1674C123.373 90.9121 121.725 89.2597 122.866 87.7336Z" fill="#27272A"/>
<path fill-rule="evenodd" clip-rule="evenodd" d="M77.1237 105.086C88.909 101.376 102.736 91.1295 98.4601 73.4705C97.2325 68.4007 87.7428 54.394 69.0181 57.7116C60.4913 59.3736 53.8479 65.3964 47.2567 71.372C45.0679 73.3564 42.8848 75.3355 40.6404 77.148C31.3017 84.6898 20.8122 94.5491 21.3042 100.454C21.8854 107.428 35.6742 120.403 44.9621 128.404C49.0262 131.904 55.6567 130.339 57.3542 125.251C61.7998 111.925 72.3862 106.255 77.1237 105.086ZM67.9063 81.3781C72.3005 75.5019 79.322 71.5007 86.7304 81.7634C87.907 83.3933 85.9803 85.2736 84.1504 84.4415C78.0097 81.6492 74.306 82.0552 70.1676 83.8119C68.4134 84.5566 66.765 82.9042 67.9063 81.3781Z" fill="#27272A"/>
<path fill-rule="evenodd" clip-rule="evenodd" d="M103.004 119.775L103.004 119.775C103.006 119.775 103.007 119.775 103.009 119.775C105.49 119.958 107.933 118.66 109.822 117.228C111.732 115.779 113.091 114.181 113.37 113.798C113.709 113.334 114.807 111.581 115.342 109.551C115.877 107.522 115.855 105.19 113.912 103.605C112.375 102.35 110.403 101.526 108.566 101.005C106.775 100.496 105.108 100.274 104.086 100.224C104.051 100.222 104.015 100.22 103.979 100.218C102.963 100.158 101.304 100.198 99.4952 100.505C97.6254 100.822 95.5887 101.426 93.9343 102.504C91.8433 103.867 91.5663 106.184 91.8719 108.259C92.1777 110.335 93.0693 112.198 93.353 112.697C93.5867 113.108 94.7523 114.845 96.479 116.495C98.204 118.143 100.503 119.718 103.004 119.775ZM104.078 100.38C104.104 100.382 104.13 100.383 104.155 100.385L104.155 100.384C105.171 100.441 106.788 100.663 108.523 101.155C110.349 101.674 112.298 102.49 113.813 103.726C115.684 105.253 115.719 107.504 115.19 109.511C114.661 111.517 113.574 113.252 113.243 113.706C112.972 114.077 111.624 115.664 109.726 117.103C107.866 118.514 105.492 119.772 103.093 119.623L103.093 119.62C103.068 119.62 103.043 119.619 103.017 119.618C102.992 119.616 102.967 119.614 102.941 119.612L102.941 119.615C100.541 119.499 98.3196 117.988 96.6253 116.381C94.897 114.742 93.7317 113.017 93.5034 112.618C93.2238 112.13 92.3339 110.286 92.0288 108.235C91.7235 106.182 92.0061 103.948 94.0339 102.636C95.6747 101.574 97.7024 100.977 99.5743 100.662C101.335 100.366 102.952 100.322 103.97 100.374C103.98 100.375 103.99 100.375 104 100.376L104 100.377C104.012 100.377 104.023 100.378 104.035 100.378C104.047 100.379 104.058 100.38 104.069 100.38L104.07 100.38C104.072 100.38 104.075 100.38 104.078 100.38Z" fill="#27272A"/>
<path d="M104.155 100.385C104.13 100.383 104.104 100.382 104.078 100.38L104.07 100.38L104.069 100.38C104.058 100.38 104.047 100.379 104.035 100.378C104.023 100.378 104.012 100.377 104 100.377L104 100.376L103.97 100.374C102.952 100.322 101.335 100.366 99.5743 100.662C97.7024 100.977 95.6747 101.574 94.0339 102.636C92.0061 103.948 91.7235 106.182 92.0288 108.235C92.3339 110.286 93.2238 112.13 93.5034 112.618C93.7317 113.017 94.897 114.742 96.6253 116.381C98.3196 117.988 100.541 119.499 102.941 119.615L102.941 119.612C102.967 119.614 102.992 119.616 103.017 119.618C103.043 119.619 103.068 119.62 103.093 119.62L103.093 119.623C105.492 119.772 107.866 118.514 109.726 117.103C111.624 115.664 112.972 114.077 113.243 113.706C113.574 113.252 114.661 111.517 115.19 109.511C115.719 107.504 115.684 105.253 113.813 103.726C112.298 102.49 110.349 101.674 108.523 101.155C106.788 100.663 105.171 100.441 104.155 100.384L104.155 100.385Z" fill="#27272A"/>
<ellipse cx="15.7396" cy="23.0285" rx="15.7396" ry="23.0285" transform="matrix(-0.419581 0.907718 -0.908404 -0.418094 198.351 170.267)" fill="#EE79D9"/>
<path d="M146.82 161.922C158.929 159.072 184.751 157.597 191.165 174.499C199.181 195.627 170.361 187.017 159.293 181.703" stroke="#27272A" stroke-width="4" stroke-linecap="round"/>
<ellipse cx="17.5971" cy="23.4236" rx="17.5971" ry="23.4236" transform="matrix(-0.202203 0.979344 -0.979634 -0.200791 182.699 264.026)" fill="#EE79D9"/>
<path d="M130.772 272.757C137.793 282.713 154.803 300.63 166.673 292.639C181.51 282.652 174.939 257.707 142.752 259.858" stroke="#09090B" stroke-width="4" stroke-linecap="round"/>
</svg>
